<?xml version="1.0" encoding="UTF-8"?><svg id="Layer_2" xmlns="http://www.w3.org/2000/svg" viewBox="0 0 720.096 562.933"><path d="m430.552,0h-141.008C139.049,0,17.048,128.581,17.048,287.193v81.807h686v-81.807C703.048,128.581,581.048,0,430.552,0Z" fill="#aeb1ba" stroke-width="0"/><g opacity=".2"><path d="m347.74,206.22c1.301-.13,2.242-1.322,2.242-2.629V22.475c0-1.367-1.108-2.475-2.475-2.475h-.05c-1.367,0-2.475,1.108-2.475,2.475v181.258c0,1.466,1.261,2.637,2.758,2.487Z" fill="#010569" stroke-width="0"/><path d="m247.212,206.22c1.301-.13,2.242-1.322,2.242-2.629V26.294c0-1.546-1.401-2.709-2.922-2.436-.017.003-.033.006-.05.009-1.176.211-2.028,1.242-2.028,2.437v177.43c0,1.466,1.261,2.637,2.758,2.487Z" fill="#010569" stroke-width="0"/><path d="m272.344,206.22c1.301-.13,2.242-1.322,2.242-2.629V23.121c0-1.441-1.225-2.57-2.662-2.469-.017.001-.033.002-.05.004-1.291.091-2.288,1.175-2.288,2.469v180.608c0,1.466,1.261,2.637,2.758,2.487Z" fill="#010569" stroke-width="0"/><path d="m322.608,206.22c1.301-.13,2.242-1.322,2.242-2.629V22.475c0-1.367-1.108-2.475-2.475-2.475h-.05c-1.367,0-2.475,1.108-2.475,2.475v181.258c0,1.466,1.261,2.637,2.758,2.487Z" fill="#010569" stroke-width="0"/><path d="m121.551,206.22c1.301-.13,2.242-1.322,2.242-2.629v-112.197c0-2.182-2.624-3.304-4.193-1.788-.017.016-.033.032-.05.048-.484.468-.757,1.115-.757,1.788v112.291c0,1.466,1.261,2.637,2.758,2.487Z" fill="#010569" stroke-width="0"/><path d="m222.08,206.22c1.301-.13,2.242-1.322,2.242-2.629V32.269c0-1.657-1.596-2.845-3.185-2.374-.017.005-.033.01-.05.015-1.049.311-1.765,1.28-1.765,2.374v171.449c0,1.466,1.261,2.637,2.758,2.487Z" fill="#010569" stroke-width="0"/><path d="m171.816,206.22c1.301-.13,2.242-1.322,2.242-2.629V53.684c0-1.898-2.049-3.093-3.699-2.156-.017.009-.033.019-.05.028-.774.44-1.251,1.266-1.251,2.156v150.02c0,1.466,1.261,2.637,2.758,2.487Z" fill="#010569" stroke-width="0"/><path d="m146.684,206.22c1.301-.13,2.242-1.322,2.242-2.629V70.064c0-2.033-2.318-3.204-3.95-1.993-.017.012-.033.025-.05.037-.63.468-1,1.209-1,1.993v133.632c0,1.466,1.261,2.637,2.758,2.487Z" fill="#010569" stroke-width="0"/><path d="m196.948,206.22c1.301-.13,2.242-1.322,2.242-2.629V41.266c0-1.775-1.813-2.974-3.447-2.28-.017.007-.033.014-.05.021-.913.388-1.503,1.288-1.503,2.28v162.446c0,1.466,1.261,2.637,2.758,2.487Z" fill="#010569" stroke-width="0"/><path d="m297.476,206.22c1.301-.13,2.242-1.322,2.242-2.629V22.475c0-1.367-1.108-2.475-2.475-2.475h-.05c-1.367,0-2.475,1.108-2.475,2.475v181.258c0,1.466,1.261,2.637,2.758,2.487Z" fill="#010569" stroke-width="0"/><path d="m523.664,206.22c1.301-.13,2.242-1.322,2.242-2.629V41.287c0-.992-.591-1.892-1.503-2.28-.017-.007-.033-.014-.05-.021-1.633-.694-3.447.505-3.447,2.28v162.467c0,1.466,1.261,2.637,2.758,2.487Z" fill="#010569" stroke-width="0"/><path d="m548.796,206.22c1.301-.13,2.242-1.322,2.242-2.629V53.713c0-.89-.476-1.716-1.251-2.156-.017-.009-.033-.019-.05-.028-1.65-.937-3.7.258-3.7,2.156v150.049c0,1.466,1.261,2.637,2.758,2.487Z" fill="#010569" stroke-width="0"/><path d="m498.532,206.22c1.301-.13,2.242-1.322,2.242-2.629V32.284c0-1.094-.716-2.063-1.765-2.374-.017-.005-.033-.01-.05-.015-1.589-.471-3.185.717-3.185,2.374v171.464c0,1.466,1.261,2.637,2.758,2.487Z" fill="#010569" stroke-width="0"/><path d="m599.06,206.22c1.301-.13,2.242-1.322,2.242-2.629v-112.149c0-.673-.273-1.32-.757-1.788-.017-.016-.033-.032-.05-.048-1.569-1.515-4.193-.393-4.193,1.788v112.339c0,1.466,1.261,2.637,2.758,2.487Z" fill="#010569" stroke-width="0"/><path d="m573.928,206.22c1.301-.13,2.242-1.322,2.242-2.629V70.101c0-.784-.37-1.526-1-1.993-.017-.012-.033-.025-.05-.037-1.632-1.211-3.95-.039-3.95,1.993v133.668c0,1.466,1.261,2.637,2.758,2.487Z" fill="#010569" stroke-width="0"/><path d="m423.136,206.22c1.301-.13,2.242-1.322,2.242-2.629V22.475c0-1.367-1.108-2.475-2.475-2.475h-.05c-1.367,0-2.475,1.108-2.475,2.475v181.258c0,1.466,1.261,2.637,2.758,2.487Z" fill="#010569" stroke-width="0"/><path d="m398.004,206.22c1.301-.13,2.242-1.322,2.242-2.629V22.475c0-1.367-1.108-2.475-2.475-2.475h-.05c-1.367,0-2.475,1.108-2.475,2.475v181.258c0,1.466,1.261,2.637,2.758,2.487Z" fill="#010569" stroke-width="0"/><path d="m372.872,206.22c1.301-.13,2.242-1.322,2.242-2.629V22.475c0-1.367-1.108-2.475-2.475-2.475h-.05c-1.367,0-2.475,1.108-2.475,2.475v181.258c0,1.466,1.261,2.637,2.758,2.487Z" fill="#010569" stroke-width="0"/><path d="m473.4,206.22c1.301-.13,2.242-1.322,2.242-2.629V26.303c0-1.195-.852-2.225-2.028-2.437-.017-.003-.033-.006-.05-.009-1.522-.273-2.922.891-2.922,2.436v177.439c0,1.466,1.261,2.637,2.758,2.487Z" fill="#010569" stroke-width="0"/><path d="m448.268,206.22c1.301-.13,2.242-1.322,2.242-2.629V23.125c0-1.294-.997-2.378-2.288-2.469-.017-.001-.033-.002-.05-.004-1.437-.101-2.662,1.028-2.662,2.469v180.612c0,1.466,1.261,2.637,2.758,2.487Z" fill="#010569" stroke-width="0"/></g><path d="m702.471,437.5h-25.423v-108h23.959c7.016,0,13.024,5.064,14.182,11.984,5.318,31.796,7.142,61.136,1.256,85.06-1.583,6.433-7.349,10.957-13.974,10.957Z" fill="#fff" stroke-width="0"/><path d="m17.625,437.5h25.423v-108h-23.959c-7.016,0-13.024,5.064-14.182,11.984-5.318,31.796-7.142,61.136-1.256,85.06,1.583,6.433,7.349,10.957,13.974,10.957Z" fill="#fff" stroke-width="0"/><path d="m694.339,321.474c-5.13-28.437-48.404-118.137-61.292-134.851-16.604-21.534-38.048-37.932-62.013-47.422-55.993-22.173-130.848-34.893-210.775-35.816h-.422c-79.927.923-154.782,13.642-210.775,35.816-23.965,9.49-45.409,25.888-62.013,47.422-12.888,16.714-56.162,106.414-61.292,134.851-6.525,36.172-6.23,73.881.878,112.08,4.844,26.035,15.431,50.497,30.616,70.742,15.552,20.734,35.635,36.661,58.077,46.06,13.933,5.835,29.027,9.768,44.863,11.687,4.87.59,9.829.89,14.74.89,22.528,0,45.122-6.288,65.339-18.185,5.153-3.033,10.246-6.051,15.273-9.03,20.715-12.278,40.282-23.875,58.105-32.887,14.302-7.231,30.346-11.054,46.399-11.054s32.098,3.823,46.399,11.054c17.823,9.012,37.388,20.608,58.103,32.885,5.028,2.98,10.122,5.999,15.276,9.032,20.216,11.896,42.81,18.184,65.339,18.185h.002c4.909,0,9.868-.299,14.737-.89,15.836-1.919,30.93-5.852,44.863-11.687,22.442-9.399,42.525-25.326,58.077-46.06,15.185-20.245,25.771-44.707,30.616-70.742,7.108-38.199,7.404-75.909.878-112.081Z" fill="#fff" stroke-width="0"/><path d="m674.657,325.025c-9.971-55.272-44.761-100.169-91.266-118.585-60.998-24.155-142.466-36.826-223.342-37.76-80.876.934-162.344,13.605-223.342,37.76-46.506,18.416-81.296,63.314-91.266,118.585-6.309,34.974-5.643,69.93.859,104.871,8.705,46.787,37.584,85.608,76.756,102.013,12.223,5.119,25.394,8.564,39.544,10.28,23.255,2.819,46.722-2.434,67.528-14.678,26.66-15.688,51.682-30.992,74.497-42.528,34.823-17.608,76.026-17.608,110.849,0,22.815,11.536,47.837,26.84,74.497,42.528,20.807,12.244,44.274,17.497,67.528,14.678,14.151-1.715,27.321-5.161,39.544-10.28,39.172-16.405,68.051-55.226,76.756-102.013,6.501-34.941,7.168-69.897.859-104.871Z" fill="#010569" stroke-width="0"/><path d="m545.166,512.933c-13.62,0-27.445-3.9-39.982-11.277-5.108-3.006-10.156-5.998-15.139-8.951-21.455-12.716-41.72-24.727-61.036-34.493-21.262-10.751-45.109-16.434-68.961-16.434s-47.699,5.683-68.961,16.434c-19.316,9.767-39.583,21.778-61.039,34.495-4.982,2.953-10.028,5.944-15.136,8.949-12.538,7.378-26.363,11.277-39.981,11.277-2.907,0-5.841-.177-8.721-.526-11.263-1.365-21.883-4.114-31.566-8.169-29.433-12.326-51.983-42.915-58.851-79.829-5.996-32.223-6.275-63.869-.829-94.058,8.052-44.636,35.943-81.428,72.789-96.019,54.799-21.7,132.164-34.689,212.296-35.65,80.133.961,157.498,13.95,212.296,35.65,36.846,14.591,64.736,51.383,72.789,96.019,5.446,30.189,5.167,61.834-.829,94.057-6.868,36.915-29.418,67.503-58.851,79.83-9.683,4.056-20.303,6.804-31.565,8.169-2.88.349-5.814.526-8.719.526h-.002Z" fill="#772ac4" stroke-width="0"/><g opacity=".2"><path d="m148.333,508.915c5.737,1.566,11.706,2.744,17.877,3.492,2.88.349,5.814.526,8.721.526,11.595,0,23.338-2.837,34.311-8.231,82.102-130.805,187.029-231.585,265.408-296.142-21.599-3.591-44.311-6.258-67.616-7.92-82.345,72.493-182.362,176.954-258.7,308.275Z" fill="#fff" stroke-width="0"/></g><g opacity=".2"><path d="m278.144,465.007c74.521-103.161,164.634-187.991,237.868-248.11-7.239-1.738-14.673-3.359-22.274-4.864-79.478,66.441-176.047,160.123-251.853,273.671,12.471-7.357,24.544-14.36,36.259-20.697Z" fill="#fff" stroke-width="0"/></g><g opacity=".2"><path d="m635.812,299.212c-53.91,54.02-108.497,117.298-154.844,188.119,3.004,1.776,6.025,3.565,9.077,5.373,4.099,2.43,8.252,4.888,12.436,7.356,42.55-64.909,92.224-123.386,141.809-174.004-1.98-9.37-4.844-18.362-8.478-26.845Z" fill="#fff" stroke-width="0"/></g><g opacity=".2"><path d="m197.701,218.473c-11.331,2.872-22.148,6.031-32.359,9.457-27.282,23.98-55.899,50.798-84.515,80.195-2.498,7.131-4.48,14.559-5.863,22.225-.297,1.645-.569,3.296-.832,4.949,42.047-44.752,84.694-83.975,123.569-116.827Z" fill="#fff" stroke-width="0"/></g><g opacity=".2"><path d="m150.382,182.687c-1.046,0-2.021-.661-2.371-1.708-.438-1.31.269-2.726,1.579-3.164,28.938-9.673,61.521-17.303,96.846-22.677,1.364-.207,2.64.73,2.848,2.096.208,1.365-.73,2.64-2.096,2.848-35.042,5.331-67.345,12.893-96.013,22.476-.263.088-.53.129-.793.129Z" fill="#010569" stroke-width="0"/></g><g opacity=".2"><path d="m117.131,195.826c-.915,0-1.796-.504-2.235-1.376-.621-1.233-.125-2.736,1.109-3.357,4.053-2.041,8.231-3.916,12.417-5.573,2.18-.863,4.385-1.713,6.615-2.55,1.294-.485,2.734.17,3.219,1.462.485,1.293-.17,2.734-1.462,3.219-2.202.826-4.38,1.666-6.531,2.517-4.049,1.603-8.089,3.417-12.01,5.39-.36.182-.744.268-1.122.268Z" fill="#010569" stroke-width="0"/></g><g opacity=".2"><path d="m598.691,193.758c-.353,0-.711-.075-1.052-.233-2.565-1.192-5.192-2.321-7.806-3.356-2.402-.951-4.893-1.908-7.403-2.843-1.294-.482-1.952-1.922-1.47-3.216.482-1.293,1.923-1.949,3.216-1.47,2.542.947,5.064,1.917,7.498,2.88,2.704,1.07,5.419,2.238,8.072,3.471,1.252.582,1.796,2.068,1.214,3.32-.423.912-1.326,1.447-2.269,1.447Z" fill="#010569" stroke-width="0"/></g><g opacity=".2"><path d="m574.445,184.298c-.272,0-.548-.044-.819-.139-38.867-13.486-85.91-23.371-136.043-28.585-1.373-.143-2.371-1.372-2.228-2.746.143-1.373,1.374-2.367,2.746-2.228,50.51,5.254,97.941,15.225,137.165,28.835,1.305.453,1.995,1.877,1.542,3.181-.358,1.033-1.327,1.681-2.362,1.681Z" fill="#010569" stroke-width="0"/></g><g opacity=".2"><path d="m426.7,154.507c-.075,0-.15-.003-.227-.01-5.176-.465-10.447-.888-15.666-1.256-1.377-.097-2.415-1.292-2.318-2.669.097-1.377,1.303-2.424,2.669-2.318,5.251.371,10.554.796,15.762,1.264,1.375.124,2.39,1.338,2.266,2.714-.117,1.299-1.208,2.276-2.487,2.276Z" fill="#010569" stroke-width="0"/></g><g opacity=".2"><path d="m695.406,424.516c-.124,0-.249-.009-.375-.028-1.365-.206-2.306-1.479-2.1-2.844,3.934-26.126,4.635-52.164,2.084-77.388-.139-1.374.862-2.6,2.236-2.739,1.377-.138,2.6.862,2.739,2.236,2.592,25.639,1.881,52.096-2.115,78.635-.187,1.239-1.253,2.128-2.469,2.128Z" fill="#010569" stroke-width="0"/></g><g opacity=".2"><path d="m24.691,424.516c-1.216,0-2.283-.889-2.469-2.128-3.996-26.539-4.707-52.996-2.115-78.635.139-1.374,1.366-2.373,2.739-2.236,1.374.139,2.375,1.365,2.236,2.739-2.55,25.224-1.849,51.261,2.084,77.388.206,1.365-.735,2.639-2.1,2.844-.126.019-.251.028-.375.028Z" fill="#010569" stroke-width="0"/></g></svg>